PathFileType	3	(X/Y/Z)	D:\minhoCalibration\240510\subject2_KPNP\preferred\preferred08.trc
DataRate	CameraRate	NumFrames	NumMarkers	Units	OrigDataRate	OrigDataStartFrame	OrigNumFrames
200.0	200.0	27	10	mm	200.0	564	229	
Frame#	Time	Left_Ankle_Outer1			Left_Ankle_Inner1			Left_Knee_Outer1			Left_Knee_Inner1			Left_Wrist1			Right_Wrist1			Right_Knee_Inner1			Right_Knee_Outer1			Right_Ankle_Inner1			Right_Ankle_Outer1			
		X1	Y1	Z1	X2	Y2	Z2	X3	Y3	Z3	X4	Y4	Z4	X5	Y5	Z5	X6	Y6	Z6	X7	Y7	Z7	X8	Y8	Z8	X9	Y9	Z9	X10	Y10	Z10	
564	2.81	-517.56262	85.613647	-785.76758	-541.16754	93.834183	-733.76831	-385.19626	513.02448	-778.09125	-445.4437	498.56064	-703.13696	-338.03632	980.36798	-828.31885	-616.57941	1063.9325	-644.50916	-507.17001	694.37616	-308.82581	-596.01538	735.7774	-303.67352	-607.83911	312.9014	-439.92841	-704.54639	331.24591	-422.30518
565	2.815	-517.62616	85.580696	-785.80859	-541.65442	94.245941	-732.8291	-386.21976	513.29675	-778.14667	-446.24478	498.61377	-703.07825	-336.77597	981.2901	-825.71179	-618.48102	1062.4478	-645.90338	-513.65851	685.61993	-314.55194	-602.7251	726.71606	-309.68094	-610.44312	304.85629	-450.87527	-707.21954	323.83197	-434.17776
566	2.82	-517.71356	85.622261	-785.82166	-541.15356	94.450813	-733.13495	-387.27875	513.40796	-777.9632	-447.16885	498.66516	-703.03778	-336.61951	981.93976	-824.55096	-620.31738	1060.9352	-647.41809	-519.97418	676.99542	-320.53253	-608.9953	717.07452	-317.76382	-611.97156	297.9256	-462.2626	-709.69403	315.75531	-447.66595
567	2.825	-517.81824	85.586655	-785.79053	-541.77704	94.205238	-732.70361	-387.98065	513.59314	-777.67773	-448.07706	498.68661	-702.9729	-336.27829	982.59955	-822.81427	-622.1535	1059.4968	-648.935	-526.21875	668.42596	-326.86411	-614.44519	706.97968	-328.00168	-613.9502	290.34976	-473.58817	-712.24084	309.37823	-459.3056
568	2.83	-517.94556	85.59227	-785.70392	-541.79852	93.990669	-732.92163	-388.70459	513.62286	-777.20215	-448.90646	498.5889	-702.68762	-335.45792	983.37646	-820.99738	-624.15436	1058.0538	-650.48199	-532.39832	660.12335	-333.28091	-621.58759	698.99133	-332.93332	-615.8783	283.07642	-484.77313	-714.3139	302.09924	-473.14871
569	2.835	-518.01697	85.592545	-785.62701	-541.2287	94.155365	-733.0368	-389.34229	513.59967	-776.52301	-450.08414	498.67136	-702.35461	-335.11673	983.84302	-819.04401	-625.93817	1056.4558	-651.92194	-538.43274	651.96429	-339.9657	-626.84607	689.43842	-343.37292	-617.75018	275.51004	-496.28275	-716.01886	293.70261	-488.81113
570	2.84	-518.09625	85.606407	-785.54822	-542.78308	94.28231	-732.84839	-389.77271	513.52966	-775.77283	-451.3559	498.68622	-702.20068	-334.25793	984.48053	-816.42993	-627.73761	1054.8499	-653.36414	-544.39215	644.02533	-346.89188	-633.78778	681.87012	-348.97644	-619.172	268.95197	-506.97427	-717.64923	287.96173	-501.06104
571	2.845	-518.138	85.585907	-785.47906	-541.09521	94.126633	-731.17621	-390.18149	513.37103	-775.02283	-452.65286	498.76288	-701.95404	-334.43893	984.93317	-814.60999	-629.49054	1053.166	-654.74152	-550.25098	636.30457	-354.03271	-638.53381	672.67786	-360.01086	-620.64905	262.1886	-517.823	-718.61621	279.48035	-517.72412
572	2.85	-518.19885	85.607437	-785.44275	-541.67529	93.699135	-731.37085	-390.60901	513.21027	-774.12732	-453.77438	498.79034	-701.73999	-334.71997	985.19592	-812.03473	-631.05249	1051.2638	-656.02258	-555.96307	628.74164	-361.38196	-644.17395	664.58185	-368.82944	-621.94525	255.80785	-528.62952	-720.76538	273.41379	-530.4295
573	2.855	-518.24231	85.626129	-785.43231	-541.08276	94.197922	-731.15967	-390.82761	513.06891	-773.40466	-454.89539	498.68506	-701.56897	-334.36545	985.81226	-810.11682	-633.31854	1049.9343	-657.53809	-561.62958	621.38611	-368.77795	-651.02423	657.79266	-374.54465	-623.15863	249.22675	-539.96692	-721.99628	267.2117	-544.23083
574	2.86	-518.18628	85.67585	-785.50879	-541.16736	94.026787	-731.81024	-391.04648	512.93671	-772.69006	-455.33871	498.82019	-701.15302	-334.12418	986.39575	-808.09991	-635.00018	1048.3541	-658.86292	-567.23206	614.42218	-376.46616	-655.55084	649.69385	-385.53473	-624.67273	243.39105	-550.10876	-723.22607	261.39993	-557.99872
575	2.865	-518.03125	85.668686	-785.61688	-540.90906	94.059883	-731.84473	-391.06421	512.97314	-771.98206	-455.9245	498.74576	-701.11102	-333.99359	986.94659	-806.09961	-636.68188	1046.8168	-660.14703	-572.86621	607.6897	-384.39767	-661.9953	642.94836	-392.33661	-626.38226	237.76178	-560.84576	-724.3161	255.78215	-571.7616
576	2.87	-517.84442	85.692345	-785.8634	-541.33984	93.848038	-732.01599	-391.06033	512.92078	-771.38574	-456.34235	498.80103	-701.06934	-333.80045	987.50934	-804.15466	-638.45685	1045.2883	-661.54254	-578.14276	601.08484	-392.21844	-666.28131	635.29211	-404.01263	-628.13464	231.6669	-571.86182	-724.59283	249.55589	-587.71442
577	2.875	-517.65424	85.704269	-786.09009	-540.47998	94.349014	-732.11072	-391.0658	512.83643	-770.84662	-456.96771	498.70459	-700.72827	-333.72134	988.07312	-802.25549	-640.13544	1043.7877	-662.94489	-583.47113	594.68298	-400.30624	-672.62775	629.2298	-410.89688	-628.21692	227.37038	-582.20587	-726.99036	245.14452	-599.96918
578	2.88	-517.29968	85.70153	-786.39441	-540.63666	94.092224	-732.79187	-390.8652	512.87506	-770.29871	-457.23593	498.56561	-700.57477	-333.75916	988.53644	-800.39642	-641.7254	1042.177	-664.18121	-588.60101	588.68475	-407.92444	-678.0014	622.43878	-420.6987	-630.67023	221.0513	-593.76666	-727.90533	240.05774	-613.2702
579	2.885	-516.95337	85.719528	-786.70886	-540.73187	94.347992	-732.62158	-390.57806	512.81238	-769.77606	-457.35562	498.40894	-700.42328	-334.23297	988.83527	-798.4176	-643.50574	1040.9167	-665.62891	-594.24756	582.70483	-416.49518	-683.06677	616.16302	-430.90634	-632.78839	215.85901	-604.36407	-729.59937	234.55499	-627.32471
580	2.89	-516.61523	85.695473	-787.12677	-540.38702	93.977417	-733.71472	-390.12408	512.79333	-769.31586	-457.41882	498.24426	-700.27069	-334.40341	989.3089	-796.58624	-645.18958	1039.4734	-667.01215	-599.65887	577.10455	-424.7037	-688.04779	611.13843	-439.81677	-634.50153	211.1431	-615.3327	-730.4353	230.29747	-642.19165
581	2.895	-516.25708	85.683693	-787.53088	-539.72424	91.564705	-740.39258	-389.58087	512.79773	-768.74725	-457.3967	498.09402	-700.12848	-334.55447	989.97266	-794.77106	-646.76019	1038.0167	-668.3949	-604.99109	571.74823	-433.07248	-693.11469	605.91632	-449.6553	-636.48712	206.43965	-627.09491	-731.31433	226.45952	-652.7547
582	2.9	-515.87085	85.596962	-787.95319	-540.00226	93.990013	-734.79553	-388.92758	512.77313	-768.04004	-457.31473	498.00366	-699.93896	-333.75851	991.11774	-793.17981	-648.41241	1036.6287	-669.81287	-610.39136	566.56934	-441.47281	-698.57751	601.27643	-458.49097	-638.22131	202.50226	-638.33478	-732.54944	222.58296	-665.49701
583	2.905	-515.47583	85.508827	-788.37042	-539.91315	94.145851	-735.00513	-388.25235	512.64868	-767.35083	-457.1716	497.88177	-699.73218	-333.96155	991.54388	-791.53748	-650.0705	1035.219	-671.36145	-615.80444	561.65283	-449.94983	-703.41803	596.52844	-468.48938	-640.03094	198.74759	-649.56757	-733.94354	218.9063	-678.28406
584	2.91	-515.03815	85.44957	-788.73694	-539.79529	94.111885	-735.36243	-387.48535	512.54437	-766.50012	-456.99658	497.81314	-699.44904	-334.17499	992.10461	-789.88782	-651.62445	1033.7324	-672.94775	-621.12256	556.98029	-458.29053	-707.8988	591.32599	-479.7764	-641.83087	195.29364	-660.96466	-735.26245	215.56738	-690.80103
585	2.915	-514.68555	85.365417	-789.08911	-539.80945	94.229294	-735.48492	-386.49622	512.44464	-765.48901	-456.79102	497.67584	-699.08649	-334.39053	992.68744	-788.33087	-653.14612	1032.3127	-674.72809	-626.22083	552.20941	-466.87772	-712.42242	586.78485	-490.24612	-643.56573	192.20514	-672.33984	-736.59125	212.37691	-702.98737
586	2.92	-514.35846	85.294914	-789.39899	-539.62744	93.734406	-735.88	-385.49051	512.32056	-764.39069	-456.46381	497.60162	-698.48572	-334.62225	993.24683	-786.75348	-654.78247	1030.6566	-676.54553	-631.47272	547.83472	-475.55807	-717.64941	583.8125	-497.77228	-645.55261	189.21266	-683.61981	-738.44806	209.75925	-715.22327
587	2.925	-514.03058	85.19751	-789.6394	-539.18042	93.623024	-737.97107	-384.36093	512.14661	-763.2417	-456.06073	497.44931	-697.97852	-334.81046	993.84497	-785.2934	-656.35138	1029.1616	-678.42151	-636.5578	543.58014	-484.2663	-721.39899	578.87207	-509.89563	-647.33594	186.43988	-695.24017	-739.74951	207.13133	-727.16333
588	2.93	-513.62598	85.171677	-789.85797	-539.05927	93.64061	-738.19885	-383.28592	511.94727	-761.87518	-455.55453	497.33307	-697.33093	-334.99817	994.49884	-783.8454	-657.96631	1027.6936	-680.42578	-641.32385	539.47742	-493.04263	-725.72034	574.55481	-521.14075	-648.81561	184.13847	-705.39001	-741.17401	204.78571	-739.03015
589	2.935	-513.21844	85.11821	-789.94031	-539.90643	93.329941	-737.44318	-382.0947	511.8143	-760.46899	-455.08942	496.98502	-696.62921	-335.42068	995.08868	-782.37024	-659.737	1026.0391	-682.49115	-646.38611	535.71436	-501.54758	-729.99127	571.78162	-529.42017	-650.5943	181.69421	-716.15161	-742.71289	202.59923	-750.66705
590	2.94	-512.78046	85.216225	-789.85907	-539.58765	93.557983	-737.40356	-380.85205	511.67853	-759.08276	-454.47443	496.78647	-695.93079	-335.85941	995.67145	-780.87738	-661.47058	1024.3663	-684.77167	-650.69965	532.09912	-510.49011	-734.18365	568.30597	-539.41351	-652.31879	179.59222	-727.6463	-744.21442	200.6835	-762.16046
